<?xml version="1.0"?>
<svg xmlns="http://www.w3.org/2000/svg" xmlns:xlink="http://www.w3.org/1999/xlink" xmlns:svgjs="http://svgjs.com/svgjs" version="1.1" width="512" height="512" x="0" y="0" viewBox="0 0 24 24" style="enable-background:new 0 0 512 512" xml:space="preserve"><g><path xmlns="http://www.w3.org/2000/svg" d="M5.5,21A2.5,2.5,0,0,1,3,18.5V1.5A1.5,1.5,0,0,0,1.5,0h0A1.5,1.5,0,0,0,0,1.5v17A5.5,5.5,0,0,0,5.5,24h17A1.5,1.5,0,0,0,24,22.5h0A1.5,1.5,0,0,0,22.5,21Z" fill="#1f6feb" data-original="#000000" data-darkreader-inline-fill="" style="--darkreader-inline-fill:#244f90;"/><path xmlns="http://www.w3.org/2000/svg" d="M19.5,18A1.5,1.5,0,0,0,21,16.5v-6a1.5,1.5,0,0,0-3,0v6A1.5,1.5,0,0,0,19.5,18Z" fill="#1f6feb" data-original="#000000" data-darkreader-inline-fill="" style="--darkreader-inline-fill:#244f90;"/><path xmlns="http://www.w3.org/2000/svg" d="M7.5,18A1.5,1.5,0,0,0,9,16.5v-6a1.5,1.5,0,0,0-3,0v6A1.5,1.5,0,0,0,7.5,18Z" fill="#1f6feb" data-original="#000000" data-darkreader-inline-fill="" style="--darkreader-inline-fill:#244f90;"/><path xmlns="http://www.w3.org/2000/svg" d="M13.5,18A1.5,1.5,0,0,0,15,16.5V5.5a1.5,1.5,0,0,0-3,0v11A1.5,1.5,0,0,0,13.5,18Z" fill="#1f6feb" data-original="#000000" data-darkreader-inline-fill="" style="--darkreader-inline-fill:#244f90;"/><style class="darkreader darkreader--fallback">html, body, body :not(iframe) {
    background-color: #191a1b !important;
    border-color: #746e67 !important;
    color: #e7e6e4 !important;
}</style></g></svg>
