<?xml version="1.0"?>
<svg xmlns="http://www.w3.org/2000/svg" xmlns:xlink="http://www.w3.org/1999/xlink" xmlns:svgjs="http://svgjs.com/svgjs" version="1.1" width="512" height="512" x="0" y="0" viewBox="0 0 24 24" style="enable-background:new 0 0 512 512" xml:space="preserve"><g><path xmlns="http://www.w3.org/2000/svg" d="M19,12h5v7c0,2.757-2.243,5-5,5H5c-2.757,0-5-2.243-5-5v-7H5v1c0,.552,.447,1,1,1s1-.448,1-1v-1h10v1c0,.552,.447,1,1,1s1-.448,1-1v-1Zm5-3v1h-5v-1c0-.552-.447-1-1-1s-1,.448-1,1v1H7v-1c0-.552-.447-1-1-1s-1,.448-1,1v1H0v-1c0-2.757,2.243-5,5-5h1.101C6.566,1.721,8.586,0,11,0h2c2.414,0,4.434,1.721,4.899,4h1.101c2.757,0,5,2.243,5,5ZM8.184,4h7.631c-.414-1.161-1.514-2-2.816-2h-2c-1.302,0-2.402,.839-2.816,2Z" fill="#1f6feb" data-original="#000000" data-darkreader-inline-fill="" style="--darkreader-inline-fill:#244f90;"/></g></svg>
