<?xml version="1.0"?>
<svg xmlns="http://www.w3.org/2000/svg" xmlns:xlink="http://www.w3.org/1999/xlink" xmlns:svgjs="http://svgjs.com/svgjs" version="1.1" width="512" height="512" x="0" y="0" viewBox="0 0 24 24" style="enable-background:new 0 0 512 512" xml:space="preserve"><g><path xmlns="http://www.w3.org/2000/svg" d="m11 17.5a6.5 6.5 0 0 1 11-4.684v-12.816h-17a3 3 0 0 0 -3 3v18a3 3 0 0 0 3 3h12.5a6.5 6.5 0 0 1 -6.5-6.5zm-4-12.5h10v2h-10zm15.543 18.957-2.657-2.657a4.457 4.457 0 0 1 -2.386.7 4.5 4.5 0 1 1 4.5-4.5 4.457 4.457 0 0 1 -.7 2.386l2.657 2.657z" fill="#1f6feb" data-original="#000000" data-darkreader-inline-fill="" style="--darkreader-inline-fill:#244f90;"/></g></svg>
